PathFileType	4	(X/Y/Z)	s03c0102.trc
DataRate	CameraRate	NumFrames	NumMarkers	Units	OrigDataRate	OrigDataStartFrame	OrigNumFrames
200	200	4	52	mm	200	1750	2000
Frame#	Time	racr			lacr			c7			jug			rlel			rdr			llel			ldr			s2			lic			ric			lasi			rasi			rpsi			lpsi			rgt			lgt			rth1			rth2			rth3			rth4			rlfc			rmfc			rsh1			rsh2			rsh3			rsh4			rlmal			rmmal			rcal			rtoe			rmt5			rmt1			lth1			lth2			lth4			lth3			llfc			lmfc			lsh1			lsh2			lsh3			lsh4			llmal			lmmal			lcal			ltoe			lmt1			lmt5			SBIKE			LBIKE			RBIKE			
		X1	Y1	Z1	X2	Y2	Z2	X3	Y3	Z3	X4	Y4	Z4	X5	Y5	Z5	X6	Y6	Z6	X7	Y7	Z7	X8	Y8	Z8	X9	Y9	Z9	X10	Y10	Z10	X11	Y11	Z11	X12	Y12	Z12	X13	Y13	Z13	X14	Y14	Z14	X15	Y15	Z15	X16	Y16	Z16	X17	Y17	Z17	X18	Y18	Z18	X19	Y19	Z19	X20	Y20	Z20	X21	Y21	Z21	X22	Y22	Z22	X23	Y23	Z23	X24	Y24	Z24	X25	Y25	Z25	X26	Y26	Z26	X27	Y27	Z27	X28	Y28	Z28	X29	Y29	Z29	X30	Y30	Z30	X31	Y31	Z31	X32	Y32	Z32	X33	Y33	Z33	X34	Y34	Z34	X35	Y35	Z35	X36	Y36	Z36	X37	Y37	Z37	X38	Y38	Z38	X39	Y39	Z39	X40	Y40	Z40	X41	Y41	Z41	X42	Y42	Z42	X43	Y43	Z43	X44	Y44	Z44	X45	Y45	Z45	X46	Y46	Z46	X47	Y47	Z47	X48	Y48	Z48	X49	Y49	Z49	X50	Y50	Z50	X51	Y51	Z51	X52	Y52	Z52	
1750	8.7500	473.822613	1405.530111	-83.273750	453.801799	1407.386629	-391.122930	393.261208	1491.955746	-232.211281	409.702727	1321.146532	-230.558754	531.396966	1144.199237	6.331108	735.596673	941.485378	-53.967057	537.708054	1153.918387	-448.989391	739.831796	925.142545	-418.632128	-118.222899	1194.890580	-224.107943	49.950190	1232.202619	-405.272301	47.513750	1222.472343	-39.500373	67.162628	1157.435779	-367.333327	75.870874	1147.756334	-83.421943	-93.086660	1245.025770	-178.398563	-88.021464	1246.977428	-260.468887	-10.171394	1105.248848	-35.802246	-1.721930	1149.938673	-428.413969	52.682164	956.506646	-17.197996	114.603866	892.745866	-15.464897	139.841584	811.042738	-27.810436	146.526042	911.360582	-21.063584	188.465281	695.448547	-59.911292	206.782214	683.199734	-172.565909	162.876546	528.362575	-32.255620	179.008568	440.962500	-43.881966	148.340221	357.998964	-47.806451	209.182484	440.881985	-68.603043	129.328920	225.739604	-70.470189	155.112180	242.006675	-152.979374	73.917355	175.266603	-107.865313	383.776862	187.459031	-115.457635	267.679142	161.403393	-41.961607	289.642258	183.825057	-155.786242	103.902659	1080.138014	-481.625290	186.523639	1071.313186	-505.302695	202.773386	1102.702175	-493.276600	255.823580	1017.143793	-524.257667	385.942979	960.241589	-536.718546	414.829981	952.585502	-407.245546	284.799132	821.253987	-521.115200	254.473715	749.824212	-484.581431	183.834475	698.475712	-461.113301	282.709562	737.611872	-460.684289	105.838360	608.204109	-414.483282	144.673111	627.188965	-329.596034	32.615291	585.012356	-358.088165	328.772875	500.354038	-362.166974	237.367359	518.823390	-316.344527	206.639700	505.575307	-430.914975	-217.437785	944.355189	-235.067795	-11.365908	80.812193	-435.419827	-11.890463	80.937203	-34.979419	
1751	8.7550	473.667823	1405.571889	-83.286463	453.921934	1407.440429	-391.076917	393.222897	1491.980772	-232.295495	409.687236	1321.205212	-230.631295	531.357363	1144.226223	6.180489	735.617700	941.499983	-53.989922	537.812603	1153.981113	-449.076354	739.800850	925.127947	-418.667327	-118.313715	1194.899994	-224.308470	49.983932	1231.958649	-405.451199	47.337720	1222.682945	-39.647905	67.097882	1157.219472	-367.434474	75.720618	1147.779449	-83.399050	-93.242380	1245.087465	-178.611212	-88.114193	1246.982583	-260.684300	-10.323829	1105.328153	-35.892215	-1.696560	1149.921594	-428.429413	52.548269	956.541928	-17.256609	114.453006	892.781683	-15.500157	139.680068	811.095456	-27.863283	146.403064	911.405740	-21.081682	188.334954	695.484944	-59.959082	206.633398	683.283727	-172.598426	162.925821	528.386301	-32.308522	179.530900	440.995541	-43.727222	148.648550	358.015668	-47.813268	209.285885	440.945973	-68.730659	129.835338	225.714300	-70.456068	155.667576	242.023533	-152.973475	74.494411	175.144273	-107.903382	384.329749	187.760664	-115.502301	268.313675	161.535459	-41.986738	290.218303	183.964495	-155.777253	103.862483	1080.158609	-481.680745	186.463768	1071.258795	-505.379893	202.774267	1102.621627	-493.307800	255.699308	1017.031536	-524.428281	385.758773	959.960862	-536.882394	414.842203	952.323670	-407.421552	284.534515	821.129381	-521.178791	254.128879	749.686841	-484.620946	183.490273	698.469532	-461.174496	282.422859	737.477888	-460.812493	105.463518	608.264363	-414.532257	144.248422	627.183674	-329.643993	32.154029	585.206655	-358.101690	328.222460	499.860534	-361.838473	236.368332	518.177121	-316.753585	206.047886	505.426668	-430.959721	-217.436374	944.339909	-235.096086	-11.361102	80.825623	-435.412046	-11.885985	80.930326	-34.979793	
1752	8.7600	473.474376	1405.641400	-83.295963	454.065022	1407.544910	-391.010916	393.080066	1491.976370	-231.824007	409.647683	1321.277266	-230.626759	531.318497	1144.258596	6.015038	735.628312	941.525418	-54.051344	537.890045	1154.075668	-449.133767	739.763908	925.130625	-418.718967	-118.409291	1194.889746	-224.527033	50.072145	1231.628475	-405.650124	47.182467	1222.861813	-39.795061	66.785247	1156.977866	-367.303350	75.586605	1147.817796	-83.346087	-93.341722	1245.095817	-178.840363	-88.894189	1247.091434	-261.617452	-10.490931	1105.396317	-35.986779	-1.704221	1149.907107	-428.423966	52.424289	956.585322	-17.315929	114.341917	892.821546	-15.541411	139.538719	811.113276	-27.897475	146.269309	911.428546	-21.135239	188.219032	695.530244	-60.033435	206.464609	683.302318	-172.719958	163.019524	528.426424	-32.355997	179.747184	441.042113	-43.760689	149.011989	358.023306	-47.833234	209.531658	440.999458	-68.778691	130.388128	225.692752	-70.439598	156.245662	242.037414	-152.967693	75.148188	175.008736	-107.885478	384.920957	188.100000	-115.490195	268.971462	161.679721	-42.007062	290.825075	184.140219	-155.738759	103.848867	1080.162645	-481.730327	186.430228	1071.157397	-505.424565	202.765625	1102.512287	-493.370479	255.609550	1016.871678	-524.555873	385.584961	959.652139	-537.026937	414.799888	952.022283	-407.564351	284.217868	820.980660	-521.277043	253.717392	749.540062	-484.695479	183.069730	698.418534	-461.196079	281.939282	737.546365	-461.521928	105.015496	608.277668	-414.540787	143.783624	627.154459	-329.649571	31.683659	585.355326	-358.120085	327.546209	499.652265	-362.153094	235.744739	518.002991	-316.744656	205.249961	505.490774	-431.319980	-217.441850	944.336587	-235.099643	-11.368085	80.820017	-435.431912	-11.890845	80.936012	-34.982751	
1753	8.7650	473.272307	1405.664031	-83.356881	454.182543	1407.627669	-390.944052	392.991102	1492.007002	-231.892479	409.596331	1321.331062	-230.699364	531.243604	1144.263339	5.793150	735.633791	941.574077	-54.108416	538.019700	1154.177098	-449.168940	739.739277	925.127250	-418.772086	-118.469595	1194.889655	-224.691434	50.121828	1231.330441	-405.877902	47.047926	1223.055814	-39.908844	66.923010	1156.631972	-367.684176	75.487641	1147.825154	-83.307555	-93.452693	1245.111469	-179.089814	-88.297615	1246.924557	-261.179650	-10.620133	1105.433860	-36.078703	-1.693973	1149.885968	-428.460531	52.347251	956.612610	-17.416398	114.251542	892.843359	-15.571871	139.443432	811.122486	-27.957359	146.353153	911.183553	-21.725509	188.150312	695.560414	-60.148918	206.311337	683.319710	-172.855449	163.134230	528.424083	-32.426551	179.993659	441.068448	-43.807256	149.375510	358.022422	-47.887940	209.750000	441.080113	-68.834065	130.957257	225.646239	-70.404336	156.837824	241.995978	-152.989988	75.771433	174.849685	-107.869758	385.521932	188.484464	-115.458093	269.576674	161.852928	-41.966337	291.440203	184.382917	-155.756780	103.819473	1080.120780	-481.780211	186.400563	1071.043828	-505.498190	202.794640	1102.298284	-493.456723	255.470313	1016.676210	-524.729244	385.401384	959.291415	-537.145836	414.744766	951.646242	-407.708318	283.909946	820.733016	-521.364796	253.359435	749.363506	-484.802582	182.616519	698.318895	-461.242307	281.548674	737.345393	-461.671402	104.476297	608.272777	-414.533493	143.611705	626.916986	-329.520943	31.173444	585.428946	-358.067776	326.860235	499.376267	-362.135807	235.111135	517.821483	-316.743244	204.593468	505.344711	-431.362924	-217.457211	944.336115	-235.114348	-11.369154	80.839035	-435.424804	-11.897896	80.934548	-35.001590	
